<?xml version="1.0" encoding="utf-8"?>
<!-- Generator: Adobe Illustrator 25.4.1, SVG Export Plug-In . SVG Version: 6.00 Build 0) -->
<svg version="1.1" id="Layer_1" xmlns="http://www.w3.org/2000/svg" xmlns:xlink="http://www.w3.org/1999/xlink" x="0px" y="0px" viewBox="0 0 2000 2000" style="enable-background:new 0 0 2000 2000;" xml:space="preserve">
	<style type="text/css">
		.st0{display:none;fill:#FFFFFF;stroke:#000000;stroke-miterlimit:10;}
		.st1{fill:#FFFFFF;}
		.st2{
			fill:#FFE600;
			mix-blend-mode: darken;
			opacity:0;
			animation: myFadeAnimation 1s linear 0s 1 forwards ;
		
		}
		.st3{
			fill:#4CB9E3;
			mix-blend-mode: darken;
			animation: myFadeAnimation 1s linear 1s 1 forwards ;
			opacity:0;
		}
		.st4{
			fill:#F30A7D;
			animation: myFadeAnimation 1s linear 2s 1 forwards ;
			opacity:0;
			mix-blend-mode: darken;
		}
		@keyframes myFadeAnimation {
		0%{
		opacity: 0;
		}
		100%{
		opacity: 1;
		}
		}
	</style>
	<rect class="st0" width="2000" height="2000" />
	<g>
		<g>
			<g>
				<path class="st1" d="M1169.61,937.57l30.47-30.47c15-15,15-39.33,0-54.34l-104.22-104.22c-15-15-39.33-15-54.34,0l-70.34,70.34
				l-12.7-12.7c-15-15-39.33-15-54.34,0L799.92,910.4c-15,15-15,39.33,0,54.34l104.22,104.22c15,15,39.33,15,54.34,0l12.7-12.7
				l70.34,70.34c15,15,39.33,15,54.34,0l104.22-104.22c15-15,15-39.33,0-54.34L1169.61,937.57z" />
				<path class="st2" d="M911.88,1076.7L792.18,957c-10.73-10.73-10.73-28.13,0-38.86l119.7-119.7c10.73-10.73,28.13-10.73,38.86,0
				l119.7,119.7c10.73,10.73,10.73,28.13,0,38.86l-119.7,119.7C940.01,1087.43,922.61,1087.43,911.88,1076.7z" />
				<g>
					<path class="st3" d="M1049.26,1019.06l-119.7-119.7c-10.73-10.73-10.73-28.13,0-38.86l119.7-119.7
					c10.73-10.73,28.13-10.73,38.86,0l119.7,119.7c10.73,10.73,10.73,28.13,0,38.86l-119.7,119.7
					C1077.39,1029.79,1059.99,1029.79,1049.26,1019.06z" />
					<path class="st4" d="M1049.26,1134.34l-119.7-119.7c-10.73-10.73-10.73-28.13,0-38.86l119.7-119.7
					c10.73-10.73,28.13-10.73,38.86,0l119.7,119.7c10.73,10.73,10.73,28.13,0,38.86l-119.7,119.7
					C1077.39,1145.07,1059.99,1145.07,1049.26,1134.34z" />
				</g>
			</g>
		</g>
	
	</g>
</svg>
